# xmcd
#
# Track frame offsets: 
#        150
#        34447
#        53838
#        88377
#        107065
#        127011
#        158030
#
# Disc length: 2345 seconds
#
# Revision: 0
# Processed by: cddbd v1.5.2PL0 Copyright (c) Steve Scherf et al.
# Submitted via: ExactAudioCopy v1.0b4
#
DISCID=5f092707
DTITLE=Junior Wells - Pleading The Blues  (LP)
DYEAR=1979
DGENRE=Blues
TTITLE0=Pleading The Blues
TTITLE1=It Hurts Me Too
TTITLE2=Cut Out The Lights
TTITLE3=Just For My Baby
TTITLE4=Quit Teasing My Baby
TTITLE5=I'll Take Care Of You
TTITLE6=Take Your Time Baby
EXTD=
EXTT0=
EXTT1=
EXTT2=
EXTT3=
EXTT4=
EXTT5=
EXTT6=
PLAYORDER=
